<svg width="1200" height="630" viewBox="0 0 1200 630" xmlns="http://www.w3.org/2000/svg"><defs><pattern id="satori_pattern_id_0" x="0" y="0" width="1" height="1" patternUnits="objectBoundingBox"><linearGradient id="satori_biid_0" x1="-0.10239854127071278" y1="0.2785529002077502" x2="1.102398541270713" y2="0.7214470997922499" spreadMethod="pad"><stop offset="0%" stop-color="#0F172A"/><stop offset="50%" stop-color="#1E293B"/><stop offset="100%" stop-color="#0F172A"/></linearGradient><rect x="0" y="0" width="1200" height="630" fill="url(#satori_biid_0)"/></pattern></defs><clipPath id="satori_cp-id"><rect x="0" y="0" width="1200" height="630"/></clipPath><mask id="satori_om-id"><rect x="0" y="0" width="1200" height="630" fill="#fff"/></mask><rect x="0" y="0" width="1200" height="630" fill="url(#satori_pattern_id_0)"/><defs><pattern id="satori_pattern_id-0_0" x="0" y="0" width="1" height="1" patternUnits="objectBoundingBox"><linearGradient id="satori_biid-0_0" x1="-4.973799150320702e-16" y1="4.973799150320712e-16" x2="1.0000000000000007" y2="0.9999999999999994" spreadMethod="pad"><stop offset="0%" stop-color="#3B82F615"/><stop offset="100%" stop-color="#06B6D410"/></linearGradient><rect x="0" y="0" width="800" height="800" fill="url(#satori_biid-0_0)"/></pattern></defs><mask id="satori_om-id-0"><rect x="600" y="-400" width="800" height="800" fill="#fff" mask="url(#satori_om-id)"/></mask><path x="600" y="-400" width="800" height="800" fill="url(#satori_pattern_id-0_0)" d="M1000,-400 h0 a400,400 0 0 1 400,400 v0 a400,400 0 0 1 -400,400 h0 a400,400 0 0 1 -400,-400 v0 a400,400 0 0 1 400,-400" clip-path="url(#satori_cp-id)" mask="url(#satori_om-id)"/><defs><pattern id="satori_pattern_id-1_0" x="0" y="0" width="1" height="1" patternUnits="objectBoundingBox"><linearGradient id="satori_biid-1_0" x1="-5.210646728907401e-16" y1="5.210646728907411e-16" x2="1.0000000000000007" y2="0.9999999999999994" spreadMethod="pad"><stop offset="0%" stop-color="#3B82F610"/><stop offset="100%" stop-color="#06B6D405"/></linearGradient><rect x="0" y="0" width="600" height="600" fill="url(#satori_biid-1_0)"/></pattern></defs><mask id="satori_om-id-1"><rect x="-100" y="330" width="600" height="600" fill="#fff" mask="url(#satori_om-id)"/></mask><path x="-100" y="330" width="600" height="600" fill="url(#satori_pattern_id-1_0)" d="M200,330 h0 a300,300 0 0 1 300,300 v0 a300,300 0 0 1 -300,300 h0 a300,300 0 0 1 -300,-300 v0 a300,300 0 0 1 300,-300" clip-path="url(#satori_cp-id)" mask="url(#satori_om-id)"/><mask id="satori_om-id-2"><rect x="210" y="75" width="780" height="481" fill="#fff" mask="url(#satori_om-id)"/></mask><mask id="satori_om-id-2-0"><rect x="342" y="115" width="516" height="127" fill="#fff" mask="url(#satori_om-id)"/></mask><g mask="url(#satori_om-id)" clip-path="url(#satori_cp-id)"><path fill="#F8FAFC" d="M358.5 217L350.9 217L350.9 152.5L359.2 152.5L382.7 193.2L389.7 206.4L390.1 206.4Q389.7 201.6 389.3 196.3Q389.0 191.0 389.0 186.0L389.0 186.0L389.0 152.5L396.7 152.5L396.7 217L388.4 217L364.9 176.3L357.9 163.1L357.6 163.1Q357.8 167.9 358.2 173.0Q358.5 178.0 358.5 183.1L358.5 183.1L358.5 217ZM433.9 218.1L433.9 218.1Q425.8 218.1 419.6 214.1Q413.4 210.0 409.8 202.4Q406.3 194.8 406.3 184.5L406.3 184.5Q406.3 174.1 409.8 166.7Q413.4 159.3 419.6 155.3Q425.8 151.4 433.9 151.4L433.9 151.4Q442.0 151.4 448.2 155.4Q454.4 159.4 457.9 166.8Q461.4 174.1 461.4 184.5L461.4 184.5Q461.4 194.8 457.9 202.4Q454.4 210.0 448.2 214.1Q442.0 218.1 433.9 218.1ZM433.9 211.0L433.9 211.0Q439.7 211.0 444.0 207.8Q448.3 204.5 450.7 198.5Q453.1 192.5 453.1 184.5L453.1 184.5Q453.1 176.4 450.7 170.6Q448.3 164.7 444.0 161.6Q439.7 158.5 433.9 158.5L433.9 158.5Q428.2 158.5 423.8 161.6Q419.4 164.7 417.1 170.6Q414.7 176.4 414.7 184.5L414.7 184.5Q414.7 192.5 417.1 198.5Q419.4 204.5 423.8 207.8Q428.2 211.0 433.9 211.0Z M504.2 218.1L504.2 218.1Q497.3 218.1 491.6 215.6Q485.8 213.0 481.7 208.6L481.7 208.6L486.5 203.0Q489.9 206.6 494.6 208.8Q499.3 211.0 504.3 211.0L504.3 211.0Q510.7 211.0 514.3 208.1Q517.8 205.2 517.8 200.5L517.8 200.5Q517.8 197.1 516.4 195.1Q514.9 193.1 512.5 191.7Q510.1 190.3 507 189.0L507 189.0L497.8 185.0Q494.8 183.6 491.7 181.6Q488.7 179.6 486.7 176.3Q484.6 173.1 484.6 168.4L484.6 168.4Q484.6 163.4 487.3 159.6Q489.9 155.8 494.5 153.6Q499.1 151.4 505.0 151.4L505.0 151.4Q510.8 151.4 515.7 153.6Q520.6 155.8 523.9 159.3L523.9 159.3L519.7 164.5Q516.7 161.7 513.1 160.1Q509.6 158.5 505.0 158.5L505.0 158.5Q499.5 158.5 496.2 161.0Q492.9 163.5 492.9 167.8L492.9 167.8Q492.9 171.0 494.5 173Q496.2 175.0 498.6 176.3Q501.1 177.5 503.7 178.6L503.7 178.6L512.8 182.6Q516.5 184.2 519.5 186.4Q522.6 188.6 524.3 191.8Q526.1 195.1 526.1 199.8L526.1 199.8Q526.1 204.9 523.5 209.1Q520.8 213.3 515.9 215.7Q511.0 218.1 504.2 218.1ZM572.5 217L534.4 217L534.4 152.5L571.5 152.5L571.5 159.4L542.5 159.4L542.5 179.6L566.9 179.6L566.9 186.6L542.5 186.6L542.5 210.0L572.5 210.0L572.5 217ZM581.4 217L573.3 217L595.1 152.5L604.2 152.5L626.1 217L617.4 217L606.2 180.9Q604.4 175.4 602.8 170.1Q601.2 164.7 599.7 159.1L599.7 159.1L599.3 159.1Q597.8 164.7 596.2 170.1Q594.6 175.4 592.9 180.9L592.9 180.9L581.4 217ZM614.4 197.3L584.6 197.3L584.6 190.9L614.4 190.9L614.4 197.3ZM634.2 218.1L634.2 218.1Q631.9 218.1 630.2 216.4Q628.4 214.7 628.4 212.1L628.4 212.1Q628.4 209.3 630.2 207.6Q631.9 205.9 634.2 205.9L634.2 205.9Q636.6 205.9 638.3 207.6Q640.1 209.3 640.1 212.1L640.1 212.1Q640.1 214.7 638.3 216.4Q636.6 218.1 634.2 218.1Z M674.4 217L666.3 217L666.3 152.5L674.4 152.5L674.4 217Z M720.8 218.1L720.8 218.1Q714.0 218.1 708.2 215.6Q702.4 213.0 698.3 208.6L698.3 208.6L703.2 203.0Q706.6 206.6 711.2 208.8Q715.9 211.0 720.9 211.0L720.9 211.0Q727.4 211.0 730.9 208.1Q734.5 205.2 734.5 200.5L734.5 200.5Q734.5 197.1 733.0 195.1Q731.6 193.1 729.2 191.7Q726.7 190.3 723.7 189.0L723.7 189.0L714.4 185.0Q711.4 183.6 708.4 181.6Q705.4 179.6 703.3 176.3Q701.3 173.1 701.3 168.4L701.3 168.4Q701.3 163.4 703.9 159.6Q706.6 155.8 711.2 153.6Q715.7 151.4 721.6 151.4L721.6 151.4Q727.4 151.4 732.3 153.6Q737.2 155.8 740.6 159.3L740.6 159.3L736.3 164.5Q733.3 161.7 729.8 160.1Q726.2 158.5 721.6 158.5L721.6 158.5Q716.2 158.5 712.9 161.0Q709.6 163.5 709.6 167.8L709.6 167.8Q709.6 171.0 711.2 173Q712.8 175.0 715.3 176.3Q717.8 177.5 720.3 178.6L720.3 178.6L729.5 182.6Q733.2 184.2 736.2 186.4Q739.2 188.6 741.0 191.8Q742.8 195.1 742.8 199.8L742.8 199.8Q742.8 204.9 740.1 209.1Q737.5 213.3 732.5 215.7Q727.6 218.1 720.8 218.1ZM789.1 217L751.0 217L751.0 152.5L788.2 152.5L788.2 159.4L759.1 159.4L759.1 179.6L783.6 179.6L783.6 186.6L759.1 186.6L759.1 210.0L789.1 210.0L789.1 217ZM836.6 217L798.5 217L798.5 152.5L835.6 152.5L835.6 159.4L806.6 159.4L806.6 179.6L831.0 179.6L831.0 186.6L806.6 186.6L806.6 210.0L836.6 210.0L836.6 217ZM849.2 218.1L849.2 218.1Q846.9 218.1 845.1 216.4Q843.4 214.7 843.4 212.1L843.4 212.1Q843.4 209.3 845.1 207.6Q846.9 205.9 849.2 205.9L849.2 205.9Q851.6 205.9 853.3 207.6Q855.0 209.3 855.0 212.1L855.0 212.1Q855.0 214.7 853.3 216.4Q851.6 218.1 849.2 218.1Z "/></g><defs><pattern id="satori_pattern_id-2-1_0" x="0" y="0" width="1" height="1" patternUnits="objectBoundingBox"><linearGradient id="satori_biid-2-1_0" x1="0" y1="0" x2="1" y2="0" spreadMethod="pad"><stop offset="0%" stop-color="#3B82F6"/><stop offset="100%" stop-color="#06B6D4"/></linearGradient><rect x="0" y="0" width="180" height="10" fill="url(#satori_biid-2-1_0)"/></pattern></defs><mask id="satori_om-id-2-1"><rect x="510" y="282" width="180" height="10" fill="#fff" mask="url(#satori_om-id)"/></mask><path x="510" y="282" width="180" height="10" fill="url(#satori_pattern_id-2-1_0)" d="M515,282 h170 a5,5 0 0 1 5,5 v0 a5,5 0 0 1 -5,5 h-170 a5,5 0 0 1 -5,-5 v0 a5,5 0 0 1 5,-5" clip-path="url(#satori_cp-id)" mask="url(#satori_om-id)"/><mask id="satori_om-id-2-2"><rect x="250" y="316" width="700" height="84" fill="#fff" mask="url(#satori_om-id)"/></mask><g mask="url(#satori_om-id)" clip-path="url(#satori_cp-id)"><path fill="#94A3B8" d="M272.5 328.9L272.5 328.9Q272.5 329.7 273.1 330.2Q273.6 330.7 274.4 330.7L274.4 330.7Q275.2 330.7 275.7 330.2Q276.3 329.7 276.3 328.9L276.3 328.9Q276.3 328.1 275.7 327.6Q275.2 327.0 274.4 327.0L274.4 327.0Q273.6 327.0 273.1 327.6Q272.5 328.1 272.5 328.9ZM271.3 328.9L271.3 328.9Q271.3 328.0 271.7 327.3Q272.1 326.6 272.8 326.2Q273.5 325.7 274.4 325.7L274.4 325.7Q275.3 325.7 276.0 326.2Q276.7 326.6 277.1 327.3Q277.6 328.0 277.6 328.9L277.6 328.9Q277.6 329.8 277.1 330.5Q276.7 331.2 276.0 331.6Q275.3 332.0 274.4 332.0L274.4 332.0Q273.5 332.0 272.8 331.6Q272.1 331.2 271.7 330.5Q271.3 329.8 271.3 328.9ZM272.0 329.7L273.7 330.8Q273.5 331.1 273.4 331.4Q273.4 331.8 273.3 332.2L273.3 332.2Q273.0 333.3 272.7 334.6Q272.3 336.0 271.8 337.4Q271.3 338.8 270.6 340.1Q269.9 341.4 269.1 342.5L269.1 342.5Q267.8 344.1 266.2 345.5Q264.7 346.9 262.7 348.0Q260.6 349.2 258.1 350.0L258.1 350.0L256.2 347.9Q258.9 347.2 260.9 346.2Q262.9 345.2 264.4 343.9Q265.9 342.6 267.1 341.2L267.1 341.2Q268.1 339.9 268.8 338.3Q269.6 336.7 270.1 335.0Q270.6 333.4 270.7 332.0L270.7 332.0Q270.4 332.0 269.3 332.0Q268.2 332.0 266.7 332.0Q265.2 332.0 263.6 332.0Q262.0 332.0 260.5 332.0Q259.0 332.0 257.9 332.0Q256.8 332.0 256.4 332.0L256.4 332.0Q255.6 332.0 254.9 332.1Q254.2 332.1 253.6 332.1L253.6 332.1L253.6 329.6Q254.0 329.7 254.5 329.7Q255.0 329.8 255.5 329.8Q256.0 329.8 256.4 329.8L256.4 329.8Q256.8 329.8 257.6 329.8Q258.5 329.8 259.7 329.8Q260.9 329.8 262.3 329.8Q263.6 329.8 264.9 329.8Q266.3 329.8 267.4 329.8Q268.6 329.8 269.4 329.8Q270.2 329.8 270.5 329.8L270.5 329.8Q270.8 329.8 271.2 329.8Q271.6 329.8 272.0 329.7L272.0 329.7ZM282.1 329.8L282.1 329.8Q282.9 329.8 283.5 329.9Q284.1 329.9 284.6 329.9L284.6 329.9Q284.9 329.9 285.8 329.9Q286.7 329.9 288.0 329.9Q289.3 329.9 290.7 329.9Q292.2 329.9 293.6 329.9Q295.1 329.9 296.3 329.9Q297.6 329.9 298.4 329.9Q299.3 329.9 299.6 329.9L299.6 329.9Q300.1 329.9 300.8 329.9Q301.4 329.8 302.1 329.8L302.1 329.8Q302.1 330.3 302.0 330.9Q302.0 331.5 302.0 332.0L302.0 332.0Q302.0 332.3 302.0 333.1Q302.0 333.9 302.0 335.1Q302.0 336.3 302.0 337.6Q302.0 339.0 302.0 340.3Q302.0 341.7 302.0 342.8Q302.0 344.0 302.0 344.8Q302.0 345.6 302.0 345.8L302.0 345.8Q302.0 346.1 302.0 346.6Q302.0 347.2 302.0 347.7Q302.1 348.2 302.1 348.6Q302.1 349.1 302.1 349.2L302.1 349.2L299.7 349.2Q299.7 349.0 299.7 348.5Q299.7 348.0 299.7 347.3Q299.7 346.7 299.7 346.1L299.7 346.1Q299.7 345.9 299.7 345.0Q299.7 344.2 299.7 342.9Q299.7 341.6 299.7 340.1Q299.7 338.7 299.7 337.3Q299.7 335.8 299.7 334.7Q299.7 333.5 299.7 332.8Q299.7 332.1 299.7 332.1L299.7 332.1L284.4 332.1Q284.4 332.1 284.4 332.8Q284.4 333.5 284.4 334.6Q284.4 335.8 284.4 337.2Q284.4 338.6 284.4 340.1Q284.4 341.6 284.4 342.8Q284.4 344.1 284.4 345.0Q284.4 345.8 284.4 346.1L284.4 346.1Q284.4 346.5 284.4 346.9Q284.4 347.4 284.4 347.9Q284.4 348.3 284.5 348.7Q284.5 349.1 284.5 349.2L284.5 349.2L282.1 349.2Q282.1 349.1 282.1 348.6Q282.1 348.2 282.1 347.7Q282.1 347.2 282.1 346.7Q282.1 346.1 282.1 345.8L282.1 345.8Q282.1 345.6 282.1 344.7Q282.1 343.9 282.1 342.8Q282.1 341.6 282.1 340.2Q282.1 338.9 282.1 337.5Q282.1 336.1 282.1 335.0Q282.1 333.8 282.1 333.0Q282.1 332.2 282.1 332.0L282.1 332.0Q282.1 331.5 282.1 330.9Q282.1 330.3 282.1 329.8ZM283.3 345.4L300.6 345.4L300.6 347.6L283.3 347.6L283.3 345.4ZM325.9 327.2L327.4 326.6Q327.8 327.1 328.2 327.8Q328.6 328.4 329.0 329.1Q329.4 329.8 329.7 330.4L329.7 330.4L328.2 331.1Q327.8 330.3 327.1 329.1Q326.5 328.0 325.9 327.2L325.9 327.2ZM329.0 326.1L330.5 325.5Q330.9 326.0 331.3 326.7Q331.7 327.4 332.2 328.1Q332.6 328.8 332.9 329.3L332.9 329.3L331.3 330.0Q330.9 329.0 330.2 328.0Q329.6 326.9 329.0 326.1L329.0 326.1ZM327.4 331.1L329.3 332.2Q329.1 332.5 328.9 332.9Q328.8 333.3 328.6 333.7L328.6 333.7Q328.3 335.1 327.6 336.7Q326.9 338.4 325.9 340.1Q324.9 341.8 323.7 343.3L323.7 343.3Q321.8 345.6 319.1 347.5Q316.4 349.4 312.5 350.9L312.5 350.9L310.5 349.1Q313.1 348.3 315.1 347.3Q317.1 346.2 318.8 344.9Q320.4 343.5 321.7 342.1L321.7 342.1Q322.8 340.8 323.7 339.2Q324.6 337.7 325.2 336.1Q325.9 334.6 326.1 333.3L326.1 333.3L315.8 333.3L316.7 331.3Q317.0 331.3 317.9 331.3Q318.9 331.3 320.0 331.3Q321.2 331.3 322.4 331.3Q323.6 331.3 324.5 331.3Q325.3 331.3 325.6 331.3L325.6 331.3Q326.2 331.3 326.6 331.2Q327.1 331.2 327.4 331.1L327.4 331.1ZM317.3 327.1L319.9 327.9Q319.6 328.5 319.2 329.1Q318.9 329.7 318.7 330.1L318.7 330.1Q317.8 331.7 316.6 333.4Q315.3 335.2 313.6 337.0Q311.8 338.7 309.6 340.2L309.6 340.2L307.6 338.8Q309.4 337.7 310.9 336.4Q312.3 335.2 313.4 333.9Q314.5 332.6 315.2 331.4Q316.0 330.2 316.4 329.3L316.4 329.3Q316.7 329.0 316.9 328.3Q317.2 327.6 317.3 327.1L317.3 327.1ZM340.5 330.5L340.5 328.1Q341.0 328.2 341.7 328.3Q342.3 328.3 343.0 328.3L343.0 328.3Q343.4 328.3 344.5 328.3Q345.6 328.3 347.0 328.3Q348.4 328.3 349.9 328.3Q351.3 328.3 352.4 328.3Q353.5 328.3 354.0 328.3L354.0 328.3Q354.7 328.3 355.3 328.3Q356.0 328.2 356.5 328.1L356.5 328.1L356.5 330.5Q356.0 330.4 355.4 330.4Q354.7 330.4 354.0 330.4L354.0 330.4Q353.5 330.4 352.4 330.4Q351.3 330.4 349.9 330.4Q348.5 330.4 347.1 330.4Q345.6 330.4 344.5 330.4Q343.4 330.4 343.0 330.4L343.0 330.4Q342.3 330.4 341.7 330.4Q341.1 330.4 340.5 330.5L340.5 330.5ZM357.0 334.5L358.6 335.5Q358.5 335.7 358.4 335.9Q358.2 336.2 358.2 336.3L358.2 336.3Q357.7 338.4 356.7 340.5Q355.7 342.6 354.1 344.3L354.1 344.3Q351.9 346.7 349.4 348.0Q346.8 349.4 344.1 350.1L344.1 350.1L342.4 348.2Q345.3 347.5 347.9 346.2Q350.4 344.9 352.2 343.0L352.2 343.0Q353.5 341.7 354.3 340.0Q355.2 338.4 355.6 336.8L355.6 336.8Q355.3 336.8 354.4 336.8Q353.5 336.8 352.3 336.8Q351.1 336.8 349.7 336.8Q348.3 336.8 346.8 336.8Q345.4 336.8 344.1 336.8Q342.9 336.8 342.0 336.8Q341.1 336.8 340.7 336.8L340.7 336.8Q340.2 336.8 339.5 336.9Q338.7 336.9 337.9 336.9L337.9 336.9L337.9 334.6Q338.7 334.7 339.4 334.7Q340.1 334.7 340.7 334.7L340.7 334.7Q341 334.7 341.9 334.7Q342.7 334.7 344.0 334.7Q345.2 334.7 346.6 334.7Q348.1 334.7 349.5 334.7Q350.9 334.7 352.1 334.7Q353.4 334.7 354.3 334.7Q355.1 334.7 355.4 334.7L355.4 334.7Q355.9 334.7 356.3 334.7Q356.8 334.6 357.0 334.5L357.0 334.5ZM369.2 329.9L370.0 327.8Q371.1 327.9 372.6 328.2Q374.1 328.4 375.8 328.8Q377.4 329.1 379.1 329.5Q380.8 329.9 382.2 330.3Q383.7 330.7 384.7 331.1L384.7 331.1L383.8 333.2Q382.8 332.8 381.4 332.4Q379.9 332.0 378.3 331.6Q376.7 331.2 375.1 330.9Q373.4 330.5 371.9 330.3Q370.4 330.0 369.2 329.9L369.2 329.9ZM367.9 337.3L368.8 335.2Q370.2 335.4 372.1 335.8Q374.0 336.2 376.0 336.6Q378.0 337.1 379.8 337.6Q381.6 338.1 382.9 338.6L382.9 338.6L382.0 340.7Q380.8 340.2 379.0 339.7Q377.2 339.2 375.2 338.8Q373.3 338.3 371.3 337.9Q369.4 337.5 367.9 337.3L367.9 337.3ZM366.4 345.5L367.2 343.3Q368.7 343.6 370.4 343.9Q372.2 344.3 374.0 344.7Q375.9 345.1 377.7 345.6Q379.6 346.1 381.2 346.6Q382.7 347.1 383.9 347.5L383.9 347.5L382.9 349.7Q381.8 349.2 380.2 348.7Q378.6 348.2 376.8 347.7Q375.0 347.2 373.1 346.8Q371.2 346.4 369.5 346.0Q367.7 345.7 366.4 345.5L366.4 345.5ZM394.8 330.2L396.4 328.5Q397.1 329.0 398.1 329.7Q399.1 330.5 400.1 331.3Q401.1 332.1 402.0 332.9Q402.9 333.7 403.5 334.3L403.5 334.3L401.7 336.0Q401.2 335.5 400.4 334.7Q399.5 333.9 398.5 333.1Q397.5 332.2 396.5 331.5Q395.5 330.7 394.8 330.2L394.8 330.2ZM395.4 349.5L393.9 347.2Q396.4 346.9 398.4 346.2Q400.5 345.6 402.2 344.8Q403.8 344.0 405.1 343.1L405.1 343.1Q407.3 341.8 409.1 340.1Q410.9 338.3 412.3 336.4Q413.7 334.6 414.5 332.8L414.5 332.8L415.8 335.2Q414.9 337.0 413.5 338.8Q412.1 340.5 410.3 342.2Q408.6 343.8 406.4 345.2L406.4 345.2Q405.0 346.1 403.4 346.9Q401.7 347.7 399.7 348.4Q397.8 349.1 395.4 349.5L395.4 349.5ZM437.9 327.2L439.4 326.6Q439.8 327.1 440.2 327.8Q440.6 328.4 441.0 329.1Q441.4 329.8 441.7 330.4L441.7 330.4L440.2 331.1Q439.8 330.3 439.1 329.1Q438.5 328.0 437.9 327.2L437.9 327.2ZM441.0 326.1L442.5 325.5Q442.9 326.0 443.3 326.7Q443.7 327.4 444.2 328.1Q444.6 328.8 444.9 329.3L444.9 329.3L443.3 330.0Q442.9 329.0 442.2 328.0Q441.6 326.9 441.0 326.1L441.0 326.1ZM439.4 331.1L441.3 332.2Q441.1 332.5 440.9 332.9Q440.8 333.3 440.6 333.7L440.6 333.7Q440.3 335.1 439.6 336.7Q438.9 338.4 437.9 340.1Q436.9 341.8 435.7 343.3L435.7 343.3Q433.8 345.6 431.1 347.5Q428.4 349.4 424.5 350.9L424.5 350.9L422.5 349.1Q425.1 348.3 427.1 347.3Q429.1 346.2 430.8 344.9Q432.4 343.5 433.7 342.1L433.7 342.1Q434.8 340.8 435.7 339.2Q436.6 337.7 437.2 336.1Q437.9 334.6 438.1 333.3L438.1 333.3L427.8 333.3L428.7 331.3Q429.0 331.3 429.9 331.3Q430.9 331.3 432.0 331.3Q433.2 331.3 434.4 331.3Q435.6 331.3 436.5 331.3Q437.3 331.3 437.6 331.3L437.6 331.3Q438.2 331.3 438.6 331.2Q439.1 331.2 439.4 331.1L439.4 331.1ZM429.3 327.1L431.9 327.9Q431.6 328.5 431.2 329.1Q430.9 329.7 430.7 330.1L430.7 330.1Q429.8 331.7 428.6 333.4Q427.3 335.2 425.6 337.0Q423.8 338.7 421.6 340.2L421.6 340.2L419.6 338.8Q421.4 337.7 422.9 336.4Q424.3 335.2 425.4 333.9Q426.5 332.6 427.2 331.4Q428.0 330.2 428.4 329.3L428.4 329.3Q428.7 329.0 428.9 328.3Q429.2 327.6 429.3 327.1L429.3 327.1ZM453.6 348.9L451.7 350.6Q450.8 349.4 449.7 348.3Q448.7 347.2 447.6 346.2Q446.5 345.1 445.5 344.3L445.5 344.3L447.3 342.7Q448.3 343.5 449.4 344.6Q450.6 345.7 451.6 346.8Q452.7 347.9 453.6 348.9L453.6 348.9ZM482.6 331.8L482.6 329.9L498.1 329.9L498.1 331.8L482.6 331.8ZM483.2 338.0L483.2 336.1L495.5 336.1L495.5 338.0L483.2 338.0ZM489.2 337.2L489.2 325.5L491.3 325.5L491.3 337.2L489.2 337.2ZM484.0 338.0L485.9 337.5Q487.5 341.9 490.8 345.0Q494.2 348.2 499.1 349.4L499.1 349.4Q498.8 349.7 498.6 350.0Q498.3 350.3 498.1 350.7Q497.9 351.0 497.7 351.3L497.7 351.3Q492.6 349.8 489.2 346.4Q485.8 343.0 484.0 338.0L484.0 338.0ZM495.4 336.4L495.4 336.1L495.8 336.1L496.1 336.0L497.5 336.6Q496.6 339.6 495.1 341.9Q493.5 344.3 491.5 346.1Q489.5 347.9 487.1 349.2Q484.7 350.5 482.1 351.2L482.1 351.2Q482.0 350.9 481.9 350.6Q481.7 350.2 481.4 349.9Q481.2 349.5 481 349.3L481 349.3Q483.4 348.7 485.7 347.6Q487.9 346.5 489.8 344.8Q491.8 343.2 493.2 341.1Q494.6 339.0 495.4 336.4L495.4 336.4ZM473.7 342.3L473.1 340.3Q474.3 340.0 475.7 339.6Q477.2 339.2 478.9 338.7Q480.6 338.3 482.2 337.8L482.2 337.8L482.5 339.7Q480.2 340.4 477.9 341.1Q475.6 341.8 473.7 342.3L473.7 342.3ZM473.4 333.1L473.4 331.1L482.2 331.1L482.2 333.1L473.4 333.1ZM477.0 348.7L477.0 325.5L479.1 325.5L479.1 348.7Q479.1 349.6 478.9 350.1Q478.6 350.5 478.1 350.8L478.1 350.8Q477.5 351.0 476.6 351.1Q475.7 351.2 474.3 351.2L474.3 351.2Q474.2 350.8 474 350.2Q473.8 349.7 473.6 349.2L473.6 349.2Q474.6 349.3 475.4 349.3Q476.2 349.3 476.5 349.3L476.5 349.3Q477.0 349.3 477.0 348.7L477.0 348.7ZM509.3 337.0L509.3 337.0L511.0 337.3Q510.9 339.2 510.6 341.1Q510.3 343.0 509.9 344.7Q509.5 346.3 508.9 347.6L508.9 347.6Q508.7 347.5 508.5 347.3Q508.2 347.1 507.9 346.9Q507.6 346.7 507.4 346.6L507.4 346.6Q508.0 345.4 508.4 343.9Q508.7 342.4 508.9 340.6Q509.1 338.8 509.3 337.0ZM508.5 333.6L508.5 331.6L519.0 331.6L519.0 333.6L508.5 333.6ZM512.8 350.8L512.8 325.9L514.7 325.9L514.7 350.8L512.8 350.8ZM516.1 337.4L516.1 337.4L517.7 337.1Q518.1 338.4 518.4 339.9Q518.7 341.4 519.0 342.8Q519.2 344.2 519.3 345.4L519.3 345.4L517.6 345.7Q517.5 344.6 517.3 343.1Q517.0 341.7 516.7 340.2Q516.4 338.7 516.1 337.4ZM519.8 329.0L519.8 327.1L526.5 327.1L526.5 329.0L519.8 329.0ZM519.2 336.8L519.2 334.9L526.9 334.9L526.9 336.8L519.2 336.8ZM515.5 326.9L515.5 326.9L517.0 326.2Q517.7 327.0 518.4 328.1Q519.1 329.2 519.4 330.0L519.4 330.0L517.9 330.7Q517.6 330.0 516.9 328.9Q516.2 327.7 515.5 326.9ZM522.4 348.7L522.4 335.4L524.4 335.4L524.4 348.7Q524.4 349.6 524.2 350.1Q524.0 350.6 523.4 350.9L523.4 350.9Q522.8 351.1 521.8 351.2Q520.8 351.2 519.3 351.2L519.3 351.2Q519.3 350.8 519.1 350.2Q518.9 349.6 518.7 349.2L518.7 349.2Q519.8 349.2 520.7 349.2Q521.6 349.3 521.9 349.2L521.9 349.2Q522.2 349.2 522.3 349.1Q522.4 349 522.4 348.7L522.4 348.7ZM505.9 325.5L505.9 325.5L507.8 326.2Q507.2 327.3 506.2 328.5Q505.2 329.7 504.2 330.8Q503.1 331.8 502.1 332.7L502.1 332.7Q501.9 332.5 501.7 332.2Q501.5 331.9 501.3 331.6Q501.1 331.3 500.9 331.1L500.9 331.1Q501.9 330.4 502.8 329.4Q503.8 328.5 504.6 327.5Q505.4 326.4 505.9 325.5ZM504.2 351.3L504.2 336.7L505.9 334.9L506.2 335.0L506.2 351.3L504.2 351.3ZM506.7 331.1L506.7 331.1L508.6 331.8Q507.8 333.5 506.7 335.2Q505.6 336.9 504.3 338.4Q503.0 339.8 501.7 341.0L501.7 341.0Q501.6 340.8 501.4 340.4Q501.2 340.1 500.9 339.7Q500.7 339.4 500.5 339.2L500.5 339.2Q502.3 337.7 504.0 335.6Q505.7 333.4 506.7 331.1ZM537.6 348.9L535.7 350.6Q534.8 349.4 533.7 348.3Q532.7 347.2 531.6 346.2Q530.5 345.1 529.5 344.3L529.5 344.3L531.3 342.7Q532.3 343.5 533.4 344.6Q534.6 345.7 535.6 346.8Q536.7 347.9 537.6 348.9L537.6 348.9ZM563.5 330.4L563.4 328.1Q563.9 328.1 564.4 328.2Q564.9 328.2 565.6 328.2L565.6 328.2Q566.0 328.2 566.8 328.2Q567.6 328.1 568.7 328.1Q569.7 328.1 570.8 328Q571.9 327.9 572.8 327.9Q573.7 327.8 574.2 327.7L574.2 327.7Q574.7 327.7 575.1 327.6Q575.5 327.6 575.7 327.5L575.7 327.5L577.2 329.1Q576.9 329.3 576.4 329.6Q575.9 329.9 575.6 330.1L575.6 330.1Q575.0 330.7 574.2 331.3Q573.4 332.0 572.4 332.8Q571.5 333.6 570.6 334.3Q569.6 335.1 568.8 335.8Q568.0 336.5 567.3 337.0L567.3 337.0Q569.4 336.8 571.7 336.6Q574.0 336.4 576.3 336.3Q578.6 336.2 580.6 336.2L580.6 336.2L580.6 338.3Q578.6 338.2 576.6 338.2Q574.7 338.2 573.5 338.4L573.5 338.4Q572.5 338.6 571.5 339.0Q570.5 339.5 569.8 340.2Q569.0 340.9 568.6 341.8Q568.1 342.7 568.1 343.7L568.1 343.7Q568.1 345.1 568.8 346.0Q569.5 346.8 570.6 347.2Q571.7 347.7 572.9 347.9L572.9 347.9Q574.2 348.0 575.2 348.0Q576.2 348.0 577.0 347.9L577.0 347.9L576.5 350.2Q571.4 350.4 568.6 348.9Q565.9 347.3 565.9 344.1L565.9 344.1Q565.9 342.9 566.4 341.8Q567.0 340.8 567.7 340.0Q568.5 339.2 569.2 338.8L569.2 338.8Q567.0 338.9 564.3 339.3Q561.6 339.6 559.1 340.0L559.1 340.0L558.9 337.9Q560.0 337.8 561.3 337.6Q562.7 337.5 563.7 337.4L563.7 337.4Q564.9 336.6 566.2 335.5Q567.5 334.5 568.8 333.4Q570.1 332.3 571.2 331.3Q572.3 330.4 573.0 329.8L573.0 329.8Q572.6 329.8 571.9 329.9Q571.1 329.9 570.2 329.9Q569.3 330.0 568.4 330.0Q567.5 330.1 566.7 330.1Q566.0 330.2 565.6 330.2L565.6 330.2Q565.1 330.2 564.5 330.3Q563.9 330.4 563.5 330.4L563.5 330.4ZM597.5 329.8L599.8 329.9Q599.6 332.1 599.1 334.4Q598.7 336.8 598.0 339.1L598.0 339.1Q597.2 341.9 596.1 343.9Q595.1 345.8 594.0 346.8Q592.8 347.8 591.5 347.8L591.5 347.8Q590.3 347.8 589.1 346.9Q588.0 346.0 587.2 344.3Q586.5 342.6 586.5 340.3L586.5 340.3Q586.5 338.0 587.4 336.0Q588.4 333.9 590.0 332.3Q591.7 330.7 594.0 329.8Q596.2 328.9 598.7 328.9L598.7 328.9Q601.2 328.9 603.2 329.7Q605.2 330.5 606.6 331.9Q608.0 333.3 608.7 335.2Q609.5 337.1 609.5 339.2L609.5 339.2Q609.5 342.1 608.2 344.4Q607.0 346.6 604.6 348.0Q602.3 349.4 599.0 349.9L599.0 349.9L597.6 347.8Q598.3 347.7 598.9 347.6Q599.6 347.5 600.1 347.4L600.1 347.4Q601.4 347.1 602.7 346.5Q603.9 345.8 605.0 344.8Q606.0 343.8 606.6 342.4Q607.2 340.9 607.2 339.1L607.2 339.1Q607.2 337.4 606.6 335.9Q606.0 334.5 605.0 333.3Q603.9 332.2 602.3 331.6Q600.7 330.9 598.7 330.9L598.7 330.9Q596.4 330.9 594.6 331.8Q592.7 332.6 591.4 334.0Q590.1 335.3 589.4 336.9Q588.7 338.6 588.7 340.1L588.7 340.1Q588.7 341.9 589.1 343.0Q589.6 344.1 590.3 344.7Q590.9 345.2 591.6 345.2L591.6 345.2Q592.2 345.2 592.9 344.5Q593.6 343.9 594.4 342.4Q595.1 340.9 595.8 338.6L595.8 338.6Q596.4 336.6 596.8 334.3Q597.3 332.0 597.5 329.8L597.5 329.8ZM629.4 345.0L629.4 325.5L631.4 325.5L631.4 345.0L629.4 345.0ZM620.4 338.9L619.6 337.0L636.5 330.5L637.3 332.4L620.4 338.9ZM623.2 347.0L623.2 328.3L625.3 328.3L625.3 347.0Q625.3 347.8 625.4 348.2Q625.6 348.6 626.1 348.8Q626.6 348.9 627.6 348.9L627.6 348.9Q627.9 348.9 628.6 348.9Q629.3 348.9 630.2 348.9Q631.1 348.9 632.0 348.9Q633.0 348.9 633.7 348.9Q634.4 348.9 634.8 348.9L634.8 348.9Q635.7 348.9 636.1 348.6Q636.6 348.3 636.8 347.4Q637.0 346.5 637.0 344.9L637.0 344.9Q637.4 345.1 638.0 345.4Q638.6 345.6 639.0 345.7L639.0 345.7Q638.8 347.7 638.5 348.8Q638.1 349.9 637.3 350.4Q636.4 350.9 634.9 350.9L634.9 350.9Q634.6 350.9 633.9 350.9Q633.2 350.9 632.2 350.9Q631.2 350.9 630.2 350.9Q629.3 350.9 628.5 350.9Q627.8 350.9 627.6 350.9L627.6 350.9Q625.9 350.9 624.9 350.5Q623.9 350.2 623.6 349.4Q623.2 348.5 623.2 347.0L623.2 347.0ZM635.8 331.0L635.8 331.0L635.5 331.0L636.0 330.6L636.4 330.3L637.9 330.9L637.7 331.2Q637.7 333.7 637.7 335.9Q637.7 338.0 637.6 339.5Q637.5 340.9 637.4 341.6L637.4 341.6Q637.2 342.5 636.8 343.0Q636.4 343.4 635.7 343.6L635.7 343.6Q635.1 343.7 634.3 343.8Q633.5 343.8 632.9 343.8L632.9 343.8Q632.8 343.3 632.7 342.8Q632.6 342.2 632.4 341.8L632.4 341.8Q633.0 341.9 633.6 341.9Q634.2 341.9 634.5 341.9L634.5 341.9Q634.9 341.9 635.1 341.7Q635.3 341.6 635.5 341.0L635.5 341.0Q635.6 340.6 635.6 339.2Q635.7 337.9 635.7 335.8Q635.8 333.7 635.8 331.0ZM619.5 325.6L619.5 325.6L621.4 326.2Q620.6 328.5 619.3 330.8Q618.1 333.2 616.7 335.2Q615.2 337.2 613.7 338.8L613.7 338.8Q613.6 338.6 613.4 338.2Q613.2 337.8 613.0 337.4Q612.7 337.0 612.5 336.8L612.5 336.8Q613.9 335.4 615.2 333.6Q616.5 331.8 617.6 329.8Q618.7 327.7 619.5 325.6ZM616.5 351.2L616.5 332.8L618.6 330.8L618.6 330.8L618.6 351.2L616.5 351.2ZM653.5 329.8L655.8 329.9Q655.6 332.1 655.1 334.4Q654.7 336.8 654.0 339.1L654.0 339.1Q653.2 341.9 652.1 343.9Q651.1 345.8 650.0 346.8Q648.8 347.8 647.5 347.8L647.5 347.8Q646.3 347.8 645.1 346.9Q644.0 346.0 643.2 344.3Q642.5 342.6 642.5 340.3L642.5 340.3Q642.5 338.0 643.4 336.0Q644.4 333.9 646.0 332.3Q647.7 330.7 650.0 329.8Q652.2 328.9 654.7 328.9L654.7 328.9Q657.2 328.9 659.2 329.7Q661.2 330.5 662.6 331.9Q664.0 333.3 664.7 335.2Q665.5 337.1 665.5 339.2L665.5 339.2Q665.5 342.1 664.2 344.4Q663.0 346.6 660.6 348.0Q658.3 349.4 655.0 349.9L655.0 349.9L653.6 347.8Q654.3 347.7 654.9 347.6Q655.6 347.5 656.1 347.4L656.1 347.4Q657.4 347.1 658.7 346.5Q659.9 345.8 661.0 344.8Q662.0 343.8 662.6 342.4Q663.2 340.9 663.2 339.1L663.2 339.1Q663.2 337.4 662.6 335.9Q662.0 334.5 661.0 333.3Q659.9 332.2 658.3 331.6Q656.7 330.9 654.7 330.9L654.7 330.9Q652.4 330.9 650.6 331.8Q648.7 332.6 647.4 334.0Q646.1 335.3 645.4 336.9Q644.7 338.6 644.7 340.1L644.7 340.1Q644.7 341.9 645.1 343.0Q645.6 344.1 646.3 344.7Q646.9 345.2 647.6 345.2L647.6 345.2Q648.2 345.2 648.9 344.5Q649.6 343.9 650.4 342.4Q651.1 340.9 651.8 338.6L651.8 338.6Q652.4 336.6 652.8 334.3Q653.3 332.0 653.5 329.8L653.5 329.8ZM681.4 351.2L681.4 340.4L693.7 340.4L693.7 351.1L691.6 351.1L691.6 342.3L683.4 342.3L683.4 351.2L681.4 351.2ZM692.5 325.9L692.5 325.9L694.1 327.7Q692.3 328.2 690.1 328.6Q687.9 329.0 685.6 329.2Q683.2 329.5 681.0 329.7L681.0 329.7Q681.0 329.3 680.8 328.8Q680.6 328.3 680.4 327.9L680.4 327.9Q682.0 327.8 683.7 327.6Q685.4 327.4 687.0 327.1Q688.6 326.9 690.0 326.6Q691.4 326.3 692.5 325.9ZM686.3 341.4L686.3 328.1L688.5 328.1L688.5 341.4L686.3 341.4ZM679.7 335.6L679.7 333.7L695.1 333.7L695.1 335.6L679.7 335.6ZM682.7 349.8L682.7 347.9L692.7 347.9L692.7 349.8L682.7 349.8ZM670.4 335.8L670.4 334.1L678.7 334.1L678.7 335.8L670.4 335.8ZM670.6 328.1L670.6 326.5L678.6 326.5L678.6 328.1L670.6 328.1ZM670.4 339.6L670.4 337.9L678.7 337.9L678.7 339.6L670.4 339.6ZM669.1 331.9L669.1 330.2L679.5 330.2L679.5 331.9L669.1 331.9ZM671.5 343.5L671.5 341.8L678.7 341.8L678.7 349.9L671.5 349.9L671.5 348.2L676.9 348.2L676.9 343.5L671.5 343.5ZM670.4 351.2L670.4 341.8L672.2 341.8L672.2 351.2L670.4 351.2ZM706.3 331.8L700.9 331.8L700.9 333.9L706.3 333.9L706.3 331.8ZM706.3 328.2L700.9 328.2L700.9 330.3L706.3 330.3L706.3 328.2ZM699.0 335.4L699.0 326.7L708.3 326.7L708.3 335.4L699.0 335.4ZM697.3 339.2L697.3 337.5L710.0 337.5L710.0 339.2L697.3 339.2ZM709.8 328.4L709.8 326.9L722.6 326.9L722.6 328.4L709.8 328.4ZM702.9 347.6L702.9 338.0L704.7 338.0L704.7 348.7L702.9 347.6ZM703.9 343.8L703.9 342.2L709.5 342.2L709.5 343.8L703.9 343.8ZM715.3 327.2L715.3 327.2L717.3 327.6Q716.9 328.7 716.5 329.8Q716.1 330.9 715.7 331.7L715.7 331.7L714.1 331.4Q714.5 330.5 714.8 329.3Q715.1 328.2 715.3 327.2ZM719.4 335.7L712.8 335.7L712.8 337.8L719.4 337.8L719.4 335.7ZM719.4 339.3L712.8 339.3L712.8 341.4L719.4 341.4L719.4 339.3ZM719.4 332.1L712.8 332.1L712.8 334.2L719.4 334.2L719.4 332.1ZM710.9 343.0L710.9 330.6L721.4 330.6L721.4 343.0L710.9 343.0ZM713.2 343.5L713.2 343.5L715.0 344.0Q714.0 345.2 712.7 346.3Q711.3 347.4 710.0 348.2L710.0 348.2Q709.8 348.0 709.6 347.7Q709.3 347.5 709.0 347.2Q708.8 347.0 708.6 346.9L708.6 346.9Q709.9 346.2 711.1 345.3Q712.4 344.5 713.2 343.5ZM699.3 340.7L699.3 340.7L701.1 340.7Q701.0 342.7 700.7 344.7Q700.4 346.7 699.9 348.4Q699.3 350.1 698.3 351.3L698.3 351.3Q698.1 351.0 697.7 350.6Q697.3 350.2 697.0 350.0L697.0 350.0Q697.8 348.9 698.3 347.4Q698.8 345.9 699.0 344.2Q699.2 342.4 699.3 340.7ZM699.3 343.9L700.6 343.5Q701.3 345.2 702.5 346.3Q703.7 347.4 705.3 348.0Q706.9 348.5 708.9 348.7Q710.9 348.9 713.2 348.9L713.2 348.9Q713.6 348.9 714.6 348.9Q715.5 348.9 716.8 348.9Q718.0 348.9 719.3 348.9Q720.6 348.9 721.6 348.8Q722.6 348.8 723.1 348.8L723.1 348.8Q722.9 349.1 722.7 349.7Q722.4 350.2 722.3 350.6L722.3 350.6L720.4 350.6L713.2 350.6Q710.6 350.6 708.4 350.4Q706.2 350.1 704.5 349.4Q702.7 348.7 701.4 347.4Q700.1 346.1 699.3 343.9L699.3 343.9ZM717.1 344.3L717.1 344.3L718.6 343.4Q719.4 343.9 720.2 344.6Q721.0 345.2 721.7 345.9Q722.5 346.5 722.9 347.1L722.9 347.1L721.4 348.0Q721.0 347.5 720.2 346.8Q719.5 346.1 718.7 345.4Q717.9 344.8 717.1 344.3ZM736.8 332.3L736.8 330.1Q738.0 330.3 739.5 330.4Q741.0 330.5 742.6 330.4Q744.3 330.4 745.8 330.3Q747.3 330.2 748.3 330.1L748.3 330.1L748.3 332.3Q747.2 332.5 745.7 332.5Q744.2 332.6 742.6 332.6Q741.0 332.6 739.5 332.5Q738.0 332.5 736.8 332.3L736.8 332.3ZM735.9 341.3L737.9 341.5Q737.7 342.3 737.6 342.9Q737.5 343.5 737.5 344.1L737.5 344.1Q737.5 344.5 737.7 345.0Q737.9 345.5 738.4 345.8Q738.9 346.2 739.9 346.4Q740.8 346.6 742.2 346.6L742.2 346.6Q744.1 346.6 745.8 346.4Q747.5 346.2 749.2 345.9L749.2 345.9L749.2 348.2Q747.9 348.5 746.1 348.6Q744.4 348.8 742.2 348.8L742.2 348.8Q738.7 348.8 737.0 347.7Q735.4 346.6 735.4 344.6L735.4 344.6Q735.4 343.9 735.5 343.1Q735.7 342.3 735.9 341.3L735.9 341.3ZM729.0 327.7L731.5 327.9Q731.4 328.2 731.3 328.5Q731.2 328.9 731.1 329.2Q731.0 329.6 731.0 329.8L731.0 329.8Q730.8 330.6 730.6 331.6Q730.4 332.6 730.2 333.8Q730.1 335.0 729.9 336.2Q729.8 337.4 729.7 338.5Q729.6 339.6 729.6 340.5L729.6 340.5Q729.6 341.6 729.6 342.5Q729.7 343.4 729.8 344.5L729.8 344.5Q730.1 343.8 730.3 343.1Q730.6 342.4 730.9 341.6Q731.2 340.9 731.4 340.4L731.4 340.4L732.6 341.3Q732.2 342.3 731.8 343.5Q731.4 344.7 731.1 345.8Q730.8 346.9 730.6 347.5L730.6 347.5Q730.6 347.9 730.5 348.2Q730.5 348.6 730.5 348.8L730.5 348.8Q730.5 349.0 730.5 349.3Q730.5 349.6 730.6 349.8L730.6 349.8L728.5 349.9Q728.1 348.4 727.8 346.1Q727.5 343.8 727.5 340.9L727.5 340.9Q727.5 339.4 727.7 337.8Q727.8 336.2 728.0 334.6Q728.2 333.1 728.4 331.9Q728.7 330.6 728.8 329.7L728.8 329.7Q728.9 329.2 728.9 328.7Q729.0 328.2 729.0 327.7L729.0 327.7ZM755.1 336.8L754.1 334.4Q754.8 334.2 755.6 334.0Q756.4 333.8 757.2 333.6L757.2 333.6Q758.1 333.3 759.5 332.8Q760.9 332.4 762.5 331.9Q764.2 331.4 765.9 331.1Q767.6 330.8 769.1 330.8L769.1 330.8Q771.5 330.8 773.3 331.7Q775.2 332.5 776.3 334.2Q777.5 335.8 777.5 338.2L777.5 338.2Q777.5 340.2 776.7 341.8Q775.9 343.4 774.5 344.6Q773.2 345.8 771.2 346.7Q769.3 347.5 767.0 348.0Q764.7 348.5 762.1 348.6L762.1 348.6L761.1 346.3Q763.9 346.2 766.4 345.7Q768.9 345.2 770.8 344.3Q772.8 343.3 773.9 341.8Q775.0 340.3 775.0 338.1L775.0 338.1Q775.0 336.7 774.3 335.5Q773.6 334.3 772.3 333.6Q771.0 332.9 769.1 332.9L769.1 332.9Q767.7 332.9 766.1 333.2Q764.4 333.5 762.8 334.0Q761.1 334.5 759.6 335.1Q758.1 335.6 757.0 336.1Q755.8 336.6 755.1 336.8L755.1 336.8ZM783.6 329.4L786.3 329.5Q786.2 329.8 786.2 330.3Q786.1 330.8 786.1 331.3Q786.1 331.8 786.1 332.2L786.1 332.2Q786.0 333.0 786.0 334.1Q786.1 335.3 786.1 336.4Q786.1 337.6 786.3 338.8L786.3 338.8Q786.5 341.1 787.0 342.9Q787.5 344.6 788.3 345.6Q789.1 346.6 790.1 346.6L790.1 346.6Q790.6 346.6 791.1 346.1Q791.6 345.6 792.1 344.8Q792.5 344.0 792.9 342.9Q793.3 341.9 793.5 340.9L793.5 340.9L795.3 342.9Q794.5 345.2 793.6 346.6Q792.8 348.0 791.9 348.6Q791.0 349.3 790.0 349.3L790.0 349.3Q788.7 349.3 787.5 348.3Q786.3 347.3 785.4 345.1Q784.5 343.0 784.1 339.4L784.1 339.4Q783.9 338.1 783.9 336.7Q783.8 335.3 783.8 334.0Q783.8 332.7 783.8 331.9L783.8 331.9Q783.8 331.4 783.7 330.7Q783.7 329.9 783.6 329.4L783.6 329.4ZM798.7 331.0L800.9 330.2Q801.6 331.2 802.3 332.5Q803 333.7 803.6 335.2Q804.1 336.6 804.6 338.2Q805.1 339.7 805.4 341.2Q805.7 342.8 805.8 344.2L805.8 344.2L803.6 345.1Q803.4 343.2 803.0 341.2Q802.6 339.2 801.9 337.4Q801.3 335.5 800.5 333.9Q799.7 332.2 798.7 331.0L798.7 331.0ZM809.8 332.8L809.6 330.4Q810.4 330.4 811.0 330.3Q811.7 330.3 812.1 330.3L812.1 330.3Q812.7 330.2 814.0 330.1Q815.3 329.9 816.9 329.8Q818.6 329.6 820.5 329.5Q822.4 329.3 824.3 329.1L824.3 329.1Q825.9 329.0 827.2 328.9Q828.6 328.8 829.8 328.7Q831.0 328.6 831.9 328.6L831.9 328.6L831.9 330.9Q831.1 330.8 830.1 330.9Q829.1 330.9 828.1 331.0Q827.1 331.1 826.4 331.3L826.4 331.3Q824.9 331.8 823.7 332.7Q822.5 333.7 821.7 335.0Q820.9 336.2 820.4 337.6Q820.0 338.9 820.0 340.2L820.0 340.2Q820.0 341.8 820.6 343.0Q821.1 344.2 822.1 345.1Q823.0 345.9 824.3 346.5Q825.5 347.0 826.9 347.2Q828.3 347.5 829.7 347.5L829.7 347.5L828.8 349.9Q827.3 349.8 825.7 349.4Q824.1 349.1 822.7 348.3Q821.3 347.6 820.2 346.5Q819.0 345.4 818.4 344.0Q817.8 342.5 817.8 340.7L817.8 340.7Q817.8 338.5 818.5 336.6Q819.3 334.7 820.5 333.3Q821.7 331.9 823.0 331.2L823.0 331.2Q822.1 331.3 820.8 331.4Q819.5 331.6 817.9 331.7Q816.4 331.9 814.9 332.1Q813.4 332.3 812.1 332.5Q810.7 332.6 809.8 332.8L809.8 332.8ZM843.0 341.4L843.0 325.7L845.2 325.7L845.2 341.4L843.0 341.4ZM853.2 341.4L853.2 325.7L855.4 325.7L855.4 341.4L853.2 341.4ZM836.5 342.1L836.5 340.1L862.0 340.1L862.0 342.1L836.5 342.1ZM837.7 333.4L837.7 331.4L861.0 331.4L861.0 333.4L837.7 333.4ZM851.6 344.8L851.6 344.8L853.5 343.7Q854.8 344.6 856.3 345.8Q857.8 346.9 859.1 348.0Q860.5 349.1 861.4 350.0L861.4 350.0L859.4 351.2Q858.6 350.4 857.2 349.3Q855.9 348.1 854.4 347.0Q853.0 345.8 851.6 344.8ZM844.4 343.8L844.4 343.8L846.6 344.6Q845.6 345.8 844.3 347.0Q842.9 348.3 841.5 349.4Q840.0 350.5 838.6 351.3L838.6 351.3Q838.4 351.0 838.1 350.8Q837.8 350.5 837.5 350.2Q837.2 350.0 836.9 349.8L836.9 349.8Q838.3 349.0 839.7 348.0Q841.2 347.0 842.4 345.9Q843.6 344.8 844.4 343.8ZM865.0 331.1L865.0 329.1L889.5 329.1L889.5 331.1L865.0 331.1ZM871.8 340.9L871.8 339.1L885.0 339.1L885.0 340.9L871.8 340.9ZM870.3 351.2L870.3 334.3L884.6 334.3L884.6 336.2L872.4 336.2L872.4 351.2L870.3 351.2ZM884.1 348.6L884.1 334.3L886.2 334.3L886.2 348.6Q886.2 349.5 886.0 350.1Q885.7 350.6 885.0 350.8L885.0 350.8Q884.3 351.1 883.1 351.1Q881.9 351.2 880.1 351.2L880.1 351.2Q880.1 350.7 879.9 350.1Q879.7 349.6 879.4 349.1L879.4 349.1Q880.4 349.2 881.2 349.2Q882.0 349.2 882.6 349.2Q883.2 349.2 883.5 349.2L883.5 349.2Q883.9 349.2 884.0 349.0Q884.1 348.9 884.1 348.6L884.1 348.6ZM874.1 325.5L874.1 325.5L876.3 326.0Q875.3 329.0 873.9 332.0Q872.4 335.0 870.4 337.6Q868.3 340.2 865.7 342.1L865.7 342.1Q865.5 341.9 865.3 341.6Q865.0 341.3 864.8 341.0Q864.5 340.7 864.3 340.5L864.3 340.5Q866.2 339.2 867.7 337.5Q869.3 335.8 870.5 333.8Q871.8 331.8 872.7 329.7Q873.6 327.6 874.1 325.5ZM871.8 345.7L871.8 343.8L885.0 343.8L885.0 345.7L871.8 345.7ZM906.2 326.8L908.8 326.8Q908.8 327.0 908.7 327.3Q908.7 327.7 908.7 328.0Q908.6 328.4 908.6 328.6L908.6 328.6Q908.6 329.1 908.6 330.0Q908.6 331.0 908.6 332.1Q908.6 333.2 908.6 334.3Q908.6 335.4 908.6 336.4Q908.6 337.4 908.6 338.0L908.6 338.0L906.5 337.0Q906.5 336.6 906.5 335.8Q906.5 335.0 906.5 333.9Q906.5 332.9 906.5 331.8Q906.5 330.8 906.4 329.9Q906.4 329.1 906.4 328.6L906.4 328.6Q906.3 328.0 906.3 327.5Q906.2 327.0 906.2 326.8L906.2 326.8ZM893.9 332.9L893.9 330.7Q895.0 330.7 896.5 330.7Q897.9 330.6 899.6 330.6Q901.2 330.5 902.9 330.5Q904.6 330.5 906.1 330.4Q907.7 330.4 909.0 330.4L909.0 330.4Q910.3 330.4 911.5 330.4Q912.8 330.4 913.9 330.4Q915.0 330.4 915.9 330.4Q916.7 330.4 917.2 330.4L917.2 330.4L917.2 332.5Q916.0 332.5 914.0 332.4Q912.1 332.4 909.0 332.4L909.0 332.4Q907.2 332.4 905.2 332.4Q903.2 332.5 901.2 332.5Q899.2 332.6 897.4 332.7Q895.5 332.8 893.9 332.9L893.9 332.9ZM907.0 338.1L908.6 338.9Q908.6 340.7 908.0 342.0Q907.5 343.2 906.5 343.8Q905.6 344.5 904.3 344.5L904.3 344.5Q903.4 344.5 902.6 344.2Q901.8 343.9 901.1 343.3Q900.4 342.7 900.1 341.8Q899.7 340.9 899.7 339.8L899.7 339.8Q899.7 338.4 900.4 337.3Q901.0 336.2 902.2 335.6Q903.3 334.9 904.6 334.9L904.6 334.9Q906.3 334.9 907.3 335.7Q908.4 336.4 909.0 337.7Q909.5 338.9 909.5 340.6L909.5 340.6Q909.5 342.0 909.1 343.4Q908.7 344.9 907.8 346.2Q906.9 347.6 905.2 348.7Q903.6 349.8 901.2 350.5L901.2 350.5L899.3 348.7Q901.2 348.2 902.7 347.5Q904.2 346.8 905.3 345.8Q906.3 344.8 906.8 343.5Q907.4 342.1 907.4 340.4L907.4 340.4Q907.4 338.5 906.6 337.6Q905.8 336.8 904.6 336.8L904.6 336.8Q903.9 336.8 903.2 337.1Q902.6 337.5 902.2 338.2Q901.8 338.8 901.8 339.8L901.8 339.8Q901.8 341.1 902.6 341.8Q903.5 342.5 904.6 342.5L904.6 342.5Q905.5 342.5 906.1 342.0Q906.7 341.6 907.0 340.6Q907.3 339.6 907.0 338.1L907.0 338.1ZM925.9 330.7L925.9 328.4Q926.3 328.4 926.9 328.4Q927.4 328.5 927.9 328.5L927.9 328.5Q928.3 328.5 929.2 328.4Q930.2 328.4 931.4 328.4Q932.6 328.3 933.9 328.3Q935.1 328.3 936.0 328.2Q937.0 328.1 937.5 328.1L937.5 328.1Q938.1 328.1 938.4 328Q938.7 327.9 939.0 327.9L939.0 327.9L940.3 329.5Q939.9 329.8 939.5 330.0Q939.1 330.3 938.7 330.7L938.7 330.7Q938.2 331.1 937.3 331.8Q936.4 332.5 935.3 333.4Q934.2 334.4 933.2 335.2Q932.1 336.1 931.3 336.8L931.3 336.8Q932.3 336.5 933.3 336.3Q934.3 336.2 935.2 336.2L935.2 336.2Q937.5 336.2 939.3 337.1Q941.1 337.9 942.1 339.4Q943.2 340.9 943.2 342.8L943.2 342.8Q943.2 345.0 942.0 346.7Q940.8 348.4 938.7 349.3Q936.5 350.2 933.5 350.2L933.5 350.2Q931.6 350.2 930.3 349.7Q928.9 349.2 928.1 348.3Q927.4 347.4 927.4 346.2L927.4 346.2Q927.4 345.3 927.9 344.4Q928.5 343.6 929.4 343.1Q930.4 342.6 931.7 342.6L931.7 342.6Q933.6 342.6 934.8 343.4Q936.1 344.1 936.7 345.4Q937.4 346.6 937.5 348.0L937.5 348.0L935.5 348.4Q935.4 346.6 934.4 345.4Q933.4 344.3 931.7 344.3L931.7 344.3Q930.7 344.3 930.1 344.8Q929.4 345.3 929.4 346.1L929.4 346.1Q929.4 347.1 930.5 347.7Q931.5 348.2 933.2 348.2L933.2 348.2Q935.6 348.2 937.3 347.6Q939.1 347.0 940.0 345.7Q940.9 344.5 940.9 342.8L940.9 342.8Q940.9 341.4 940.1 340.3Q939.3 339.2 937.9 338.6Q936.5 337.9 934.7 337.9L934.7 337.9Q932.9 337.9 931.5 338.3Q930.1 338.7 928.9 339.4Q927.7 340.1 926.5 341.1Q925.3 342.2 923.9 343.5L923.9 343.5L922.3 341.9Q923.2 341.2 924.3 340.3Q925.3 339.4 926.4 338.5Q927.4 337.7 928.3 336.9Q929.3 336.1 929.9 335.6L929.9 335.6Q930.5 335.1 931.3 334.4Q932.2 333.7 933.2 332.8Q934.1 332.0 935.0 331.3Q935.8 330.6 936.4 330.1L936.4 330.1Q935.9 330.1 935.0 330.2Q934.2 330.2 933.1 330.3Q932.1 330.3 931.0 330.4Q930.0 330.4 929.1 330.4Q928.2 330.5 927.8 330.5L927.8 330.5Q927.3 330.5 926.9 330.6Q926.4 330.6 925.9 330.7L925.9 330.7Z M535.6 368.4L537.2 367.7Q537.5 368.2 537.9 368.9Q538.3 369.6 538.7 370.2Q539.1 370.9 539.4 371.4L539.4 371.4L537.8 372.1Q537.6 371.5 537.2 370.9Q536.8 370.2 536.4 369.5Q536.0 368.9 535.6 368.4L535.6 368.4ZM539.2 367.6L540.8 367.0Q541.1 367.5 541.5 368.1Q542.0 368.8 542.4 369.5Q542.8 370.2 543.0 370.7L543.0 370.7L541.5 371.4Q541.0 370.5 540.4 369.4Q539.8 368.4 539.2 367.6L539.2 367.6ZM538.0 371.7L539.7 372.8Q539.5 373.1 539.5 373.4Q539.4 373.8 539.3 374.2L539.3 374.2Q539.0 375.3 538.7 376.6Q538.3 378.0 537.8 379.4Q537.3 380.8 536.6 382.1Q535.9 383.4 535.1 384.5L535.1 384.5Q533.8 386.1 532.2 387.5Q530.6 388.9 528.6 390.0Q526.6 391.2 524.1 392.0L524.1 392.0L522.2 389.9Q524.9 389.2 526.9 388.2Q528.9 387.2 530.4 385.9Q531.9 384.6 533.1 383.2L533.1 383.2Q534.1 381.9 534.8 380.3Q535.6 378.7 536.1 377.0Q536.6 375.4 536.7 374.0L536.7 374.0Q536.3 374.0 535.3 374.0Q534.2 374.0 532.7 374.0Q531.2 374.0 529.6 374.0Q528.0 374.0 526.5 374.0Q525.0 374.0 523.9 374.0Q522.8 374.0 522.4 374.0L522.4 374.0Q521.6 374.0 520.9 374.1Q520.2 374.1 519.6 374.1L519.6 374.1L519.6 371.6Q520.0 371.7 520.5 371.7Q521.0 371.8 521.5 371.8Q522.0 371.8 522.4 371.8L522.4 371.8Q522.8 371.8 523.6 371.8Q524.5 371.8 525.7 371.8Q526.9 371.8 528.2 371.8Q529.6 371.8 530.9 371.8Q532.3 371.8 533.4 371.8Q534.6 371.8 535.4 371.8Q536.2 371.8 536.5 371.8L536.5 371.8Q536.8 371.8 537.2 371.8Q537.6 371.8 538.0 371.7L538.0 371.7ZM548.1 371.8L548.1 371.8Q548.9 371.8 549.5 371.9Q550.1 371.9 550.6 371.9L550.6 371.9Q550.9 371.9 551.8 371.9Q552.7 371.9 554.0 371.9Q555.3 371.9 556.7 371.9Q558.2 371.9 559.6 371.9Q561.1 371.9 562.3 371.9Q563.6 371.9 564.4 371.9Q565.3 371.9 565.6 371.9L565.6 371.9Q566.1 371.9 566.8 371.9Q567.4 371.8 568.1 371.8L568.1 371.8Q568.1 372.3 568.0 372.9Q568.0 373.5 568.0 374.0L568.0 374.0Q568.0 374.3 568.0 375.1Q568.0 375.9 568.0 377.1Q568.0 378.3 568.0 379.6Q568.0 381.0 568.0 382.3Q568.0 383.7 568.0 384.8Q568.0 386.0 568.0 386.8Q568.0 387.6 568.0 387.8L568.0 387.8Q568.0 388.1 568.0 388.6Q568.0 389.2 568.0 389.7Q568.1 390.2 568.1 390.6Q568.1 391.1 568.1 391.2L568.1 391.2L565.7 391.2Q565.7 391.0 565.7 390.5Q565.7 390.0 565.7 389.3Q565.7 388.7 565.7 388.1L565.7 388.1Q565.7 387.9 565.7 387.0Q565.7 386.2 565.7 384.9Q565.7 383.6 565.7 382.1Q565.7 380.7 565.7 379.3Q565.7 377.8 565.7 376.7Q565.7 375.5 565.7 374.8Q565.7 374.1 565.7 374.1L565.7 374.1L550.4 374.1Q550.4 374.1 550.4 374.8Q550.4 375.5 550.4 376.6Q550.4 377.8 550.4 379.2Q550.4 380.6 550.4 382.1Q550.4 383.6 550.4 384.8Q550.4 386.1 550.4 387.0Q550.4 387.8 550.4 388.1L550.4 388.1Q550.4 388.5 550.4 388.9Q550.4 389.4 550.4 389.9Q550.4 390.3 550.5 390.7Q550.5 391.1 550.5 391.2L550.5 391.2L548.1 391.2Q548.1 391.1 548.1 390.6Q548.1 390.2 548.1 389.7Q548.1 389.2 548.1 388.7Q548.1 388.1 548.1 387.8L548.1 387.8Q548.1 387.6 548.1 386.7Q548.1 385.9 548.1 384.8Q548.1 383.6 548.1 382.2Q548.1 380.9 548.1 379.5Q548.1 378.1 548.1 377.0Q548.1 375.8 548.1 375.0Q548.1 374.2 548.1 374.0L548.1 374.0Q548.1 373.5 548.1 372.9Q548.1 372.3 548.1 371.8ZM549.3 387.4L566.6 387.4L566.6 389.6L549.3 389.6L549.3 387.4ZM591.9 369.2L593.4 368.6Q593.8 369.1 594.2 369.8Q594.6 370.4 595.0 371.1Q595.4 371.8 595.7 372.4L595.7 372.4L594.2 373.1Q593.8 372.3 593.1 371.1Q592.5 370.0 591.9 369.2L591.9 369.2ZM595.0 368.1L596.5 367.5Q596.9 368.0 597.3 368.7Q597.7 369.4 598.2 370.1Q598.6 370.8 598.9 371.3L598.9 371.3L597.3 372.0Q596.9 371.0 596.2 370.0Q595.6 368.9 595.0 368.1L595.0 368.1ZM593.4 373.1L595.3 374.2Q595.1 374.5 594.9 374.9Q594.8 375.3 594.6 375.7L594.6 375.7Q594.3 377.1 593.6 378.7Q592.9 380.4 591.9 382.1Q590.9 383.8 589.7 385.3L589.7 385.3Q587.8 387.6 585.1 389.5Q582.4 391.4 578.5 392.9L578.5 392.9L576.5 391.1Q579.1 390.3 581.1 389.3Q583.1 388.2 584.8 386.9Q586.4 385.5 587.7 384.1L587.7 384.1Q588.8 382.8 589.7 381.2Q590.6 379.7 591.2 378.1Q591.9 376.6 592.1 375.3L592.1 375.3L581.8 375.3L582.7 373.3Q583.0 373.3 583.9 373.3Q584.9 373.3 586.0 373.3Q587.2 373.3 588.4 373.3Q589.6 373.3 590.5 373.3Q591.3 373.3 591.6 373.3L591.6 373.3Q592.2 373.3 592.6 373.2Q593.1 373.2 593.4 373.1L593.4 373.1ZM583.3 369.1L585.9 369.9Q585.6 370.5 585.2 371.1Q584.9 371.7 584.7 372.1L584.7 372.1Q583.8 373.7 582.6 375.4Q581.3 377.2 579.6 379.0Q577.8 380.7 575.6 382.2L575.6 382.2L573.6 380.8Q575.4 379.7 576.9 378.4Q578.3 377.2 579.4 375.9Q580.5 374.6 581.2 373.4Q582.0 372.2 582.4 371.3L582.4 371.3Q582.7 371.0 582.9 370.3Q583.2 369.6 583.3 369.1L583.3 369.1ZM602.5 375.0L602.2 372.6Q603.0 372.5 603.7 372.5Q604.3 372.5 604.7 372.4L604.7 372.4Q605.4 372.4 606.6 372.2Q607.9 372.1 609.6 371.9Q611.2 371.8 613.1 371.6Q615.0 371.5 617.0 371.3L617.0 371.3Q618.5 371.1 619.9 371.1Q621.3 371.0 622.4 370.9Q623.6 370.8 624.5 370.8L624.5 370.8L624.5 373.0Q623.7 373.0 622.7 373.1Q621.7 373.1 620.7 373.2Q619.8 373.2 619.0 373.5L619.0 373.5Q617.6 373.9 616.4 374.9Q615.2 375.9 614.3 377.1Q613.5 378.4 613.1 379.7Q612.6 381.1 612.6 382.3L612.6 382.3Q612.6 384.0 613.2 385.2Q613.7 386.4 614.7 387.2Q615.7 388.1 616.9 388.6Q618.1 389.2 619.5 389.4Q620.9 389.7 622.3 389.7L622.3 389.7L621.5 392.0Q619.9 392.0 618.3 391.6Q616.8 391.2 615.3 390.5Q613.9 389.8 612.8 388.7Q611.7 387.6 611.0 386.2Q610.4 384.7 610.4 382.8L610.4 382.8Q610.4 380.6 611.2 378.8Q611.9 376.9 613.1 375.5Q614.3 374.1 615.6 373.4L615.6 373.4Q614.7 373.5 613.4 373.6Q612.1 373.8 610.6 373.9Q609.0 374.1 607.5 374.3Q606.0 374.5 604.7 374.6Q603.4 374.8 602.5 375.0L602.5 375.0ZM619.1 377.1L620.5 376.5Q620.8 376.9 621.2 377.6Q621.7 378.3 622.1 379.0Q622.5 379.7 622.8 380.4L622.8 380.4L621.4 381.0Q620.9 380.0 620.3 379.0Q619.7 378.0 619.1 377.1L619.1 377.1ZM622.2 375.9L623.5 375.3Q623.9 375.7 624.3 376.4Q624.8 377.1 625.2 377.8Q625.6 378.5 626.0 379.2L626.0 379.2L624.5 379.9Q624.0 378.8 623.4 377.8Q622.8 376.8 622.2 375.9L622.2 375.9ZM643.0 368.8L645.6 368.8Q645.6 369.0 645.5 369.3Q645.5 369.7 645.5 370.0Q645.4 370.4 645.4 370.6L645.4 370.6Q645.4 371.1 645.4 372.0Q645.4 373.0 645.4 374.1Q645.4 375.2 645.4 376.3Q645.4 377.4 645.4 378.4Q645.4 379.4 645.4 380.0L645.4 380.0L643.3 379.0Q643.3 378.6 643.3 377.8Q643.3 377.0 643.3 375.9Q643.3 374.9 643.3 373.8Q643.3 372.8 643.2 371.9Q643.2 371.1 643.2 370.6L643.2 370.6Q643.1 370.0 643.1 369.5Q643.0 369.0 643.0 368.8L643.0 368.8ZM630.7 374.9L630.7 372.7Q631.8 372.7 633.3 372.7Q634.7 372.6 636.4 372.6Q638.0 372.5 639.7 372.5Q641.4 372.5 642.9 372.4Q644.5 372.4 645.8 372.4L645.8 372.4Q647.1 372.4 648.3 372.4Q649.6 372.4 650.7 372.4Q651.8 372.4 652.7 372.4Q653.5 372.4 654.0 372.4L654.0 372.4L654.0 374.5Q652.8 374.5 650.8 374.4Q648.9 374.4 645.8 374.4L645.8 374.4Q644.0 374.4 642.0 374.4Q640.0 374.5 638.0 374.5Q636.0 374.6 634.2 374.7Q632.3 374.8 630.7 374.9L630.7 374.9ZM643.8 380.1L645.4 380.9Q645.4 382.7 644.8 384.0Q644.3 385.2 643.3 385.8Q642.4 386.5 641.1 386.5L641.1 386.5Q640.2 386.5 639.4 386.2Q638.6 385.9 637.9 385.3Q637.2 384.7 636.9 383.8Q636.5 382.9 636.5 381.8L636.5 381.8Q636.5 380.4 637.2 379.3Q637.8 378.2 639.0 377.6Q640.1 376.9 641.4 376.9L641.4 376.9Q643.1 376.9 644.1 377.7Q645.2 378.4 645.8 379.7Q646.3 380.9 646.3 382.6L646.3 382.6Q646.3 384.0 645.9 385.4Q645.5 386.9 644.6 388.2Q643.7 389.6 642.0 390.7Q640.4 391.8 638.0 392.5L638.0 392.5L636.1 390.7Q638.0 390.2 639.5 389.5Q641.0 388.8 642.1 387.8Q643.1 386.8 643.6 385.5Q644.2 384.1 644.2 382.4L644.2 382.4Q644.2 380.5 643.4 379.6Q642.6 378.8 641.4 378.8L641.4 378.8Q640.7 378.8 640.0 379.1Q639.4 379.5 639.0 380.2Q638.6 380.8 638.6 381.8L638.6 381.8Q638.6 383.1 639.4 383.8Q640.3 384.5 641.4 384.5L641.4 384.5Q642.3 384.5 642.9 384.0Q643.5 383.6 643.8 382.6Q644.1 381.6 643.8 380.1L643.8 380.1ZM658.6 384.2L658.6 384.2Q659.8 384.2 660.8 384.7Q661.7 385.3 662.3 386.3Q662.9 387.2 662.9 388.4L662.9 388.4Q662.9 389.6 662.3 390.6Q661.7 391.5 660.8 392.1Q659.8 392.7 658.6 392.7L658.6 392.7Q657.5 392.7 656.5 392.1Q655.5 391.5 655.0 390.6Q654.4 389.6 654.4 388.4L654.4 388.4Q654.4 387.2 655.0 386.3Q655.5 385.3 656.5 384.7Q657.5 384.2 658.6 384.2ZM658.6 391.3L658.6 391.3Q659.8 391.3 660.7 390.5Q661.5 389.6 661.5 388.4L661.5 388.4Q661.5 387.7 661.1 387.0Q660.7 386.4 660.1 386.0Q659.4 385.6 658.6 385.6L658.6 385.6Q657.9 385.6 657.2 386.0Q656.6 386.4 656.2 387.0Q655.8 387.7 655.8 388.4L655.8 388.4Q655.8 389.2 656.2 389.9Q656.6 390.5 657.2 390.9Q657.9 391.3 658.6 391.3Z "/></g><mask id="satori_om-id-2-3"><rect x="459" y="452" width="283" height="64" fill="#fff" mask="url(#satori_om-id)"/></mask><mask id="satori_om-id-2-3-0"><rect x="459" y="452" width="283" height="64" fill="#fff" mask="url(#satori_om-id)"/></mask><path x="459" y="452" width="283" height="64" fill="rgba(30, 41, 59, 0.7)" d="M491,452 h219 a32,32 0 0 1 32,32 v0 a32,32 0 0 1 -32,32 h-219 a32,32 0 0 1 -32,-32 v0 a32,32 0 0 1 32,-32" clip-path="url(#satori_cp-id)" mask="url(#satori_om-id)"/><defs><pattern id="satori_pattern_id-2-3-0-0_0" x="0" y="0" width="1" height="1" patternUnits="objectBoundingBox"><linearGradient id="satori_biid-2-3-0-0_0" x1="-4.884981308350689e-16" y1="4.884981308350698e-16" x2="1.0000000000000004" y2="0.9999999999999994" spreadMethod="pad"><stop offset="0%" stop-color="#3B82F6"/><stop offset="100%" stop-color="#06B6D4"/></linearGradient><rect x="0" y="0" width="40" height="40" fill="url(#satori_biid-2-3-0-0_0)"/></pattern></defs><mask id="satori_om-id-2-3-0-0"><rect x="483" y="464" width="40" height="40" fill="#fff" mask="url(#satori_om-id)"/></mask><path x="483" y="464" width="40" height="40" fill="url(#satori_pattern_id-2-3-0-0_0)" d="M503,464 h0 a20,20 0 0 1 20,20 v0 a20,20 0 0 1 -20,20 h0 a20,20 0 0 1 -20,-20 v0 a20,20 0 0 1 20,-20" clip-path="url(#satori_cp-id)" mask="url(#satori_om-id)"/><g mask="url(#satori_om-id)" clip-path="url(#satori_cp-id)"><path fill="white" d="M502.5 492.2L502.5 492.2Q501.1 492.2 499.9 491.7Q498.7 491.2 497.9 490.3L497.9 490.3L498.9 489.1Q499.6 489.9 500.5 490.3Q501.5 490.8 502.5 490.8L502.5 490.8Q503.8 490.8 504.5 490.2Q505.3 489.6 505.3 488.6L505.3 488.6Q505.3 487.9 505.0 487.5Q504.7 487.1 504.2 486.8Q503.7 486.5 503.0 486.3L503.0 486.3L501.2 485.4Q500.5 485.2 499.9 484.8Q499.3 484.4 498.9 483.7Q498.5 483.0 498.5 482.1L498.5 482.1Q498.5 481.0 499.0 480.3Q499.6 479.5 500.5 479.0Q501.4 478.6 502.6 478.6L502.6 478.6Q503.8 478.6 504.8 479.0Q505.8 479.5 506.5 480.2L506.5 480.2L505.6 481.3Q505.0 480.7 504.3 480.4Q503.6 480.0 502.6 480.0L502.6 480.0Q501.5 480.0 500.8 480.5Q500.2 481.1 500.2 481.9L500.2 481.9Q500.2 482.6 500.5 483Q500.8 483.4 501.3 483.7Q501.8 483.9 502.4 484.2L502.4 484.2L504.2 485.0Q505.0 485.3 505.6 485.7Q506.2 486.2 506.6 486.9Q507.0 487.5 507.0 488.5L507.0 488.5Q507.0 489.5 506.4 490.4Q505.9 491.2 504.9 491.7Q503.9 492.2 502.5 492.2Z "/></g><mask id="satori_om-id-2-3-0-1"><rect x="535" y="470" width="183" height="29" fill="#fff" mask="url(#satori_om-id)"/></mask><g mask="url(#satori_om-id)" clip-path="url(#satori_cp-id)"><path fill="#F8FAFC" d="M539.7 493.3L539.7 493.3Q538.5 493.3 537.5 492.8Q536.4 492.4 535.6 491.8L535.6 491.8L536.5 490.5Q537.2 491.1 538 491.5Q538.8 491.8 539.7 491.8L539.7 491.8Q540.8 491.8 541.4 491.4Q541.9 490.9 541.9 490.1L541.9 490.1Q541.9 489.6 541.5 489.2Q541.1 488.8 540.6 488.6Q540 488.3 539.4 488.1L539.4 488.1Q538.6 487.8 537.9 487.4Q537.2 487.0 536.7 486.4Q536.2 485.9 536.2 484.9L536.2 484.9Q536.2 484.1 536.7 483.4Q537.1 482.7 538.0 482.3Q538.8 481.9 540.0 481.9L540.0 481.9Q541.0 481.9 541.9 482.2Q542.7 482.6 543.3 483.1L543.3 483.1L542.5 484.2Q541.9 483.8 541.3 483.6Q540.7 483.3 540 483.3L540 483.3Q539.0 483.3 538.5 483.8Q538.0 484.2 538.0 484.9L538.0 484.9Q538.0 485.4 538.3 485.7Q538.6 486.0 539.2 486.3Q539.7 486.5 540.3 486.7L540.3 486.7Q540.9 487.0 541.5 487.2Q542.1 487.5 542.6 487.8Q543.0 488.2 543.3 488.7Q543.6 489.3 543.6 490.0L543.6 490.0Q543.6 490.9 543.2 491.7Q542.7 492.4 541.9 492.8Q541.0 493.3 539.7 493.3ZM549.4 493.3L549.4 493.3Q547.7 493.3 546.9 492.2Q546.0 491.1 546.0 489.0L546.0 489.0L546.0 482.1L547.9 482.1L547.9 488.8Q547.9 490.3 548.4 491.0Q548.8 491.7 549.9 491.7L549.9 491.7Q550.8 491.7 551.4 491.2Q552.1 490.8 552.9 489.8L552.9 489.8L552.9 482.1L554.7 482.1L554.7 493L553.2 493L553.0 491.3L553.0 491.3Q552.2 492.2 551.4 492.7Q550.5 493.3 549.4 493.3ZM565.4 493L557.2 493L557.2 492.0L562.9 483.6L557.8 483.6L557.8 482.1L565.2 482.1L565.2 483.1L559.5 491.5L565.4 491.5L565.4 493ZM570.7 493.3L570.7 493.3Q569.0 493.3 568.2 492.2Q567.4 491.1 567.4 489.0L567.4 489.0L567.4 482.1L569.2 482.1L569.2 488.8Q569.2 490.3 569.7 491.0Q570.2 491.7 571.3 491.7L571.3 491.7Q572.1 491.7 572.8 491.2Q573.4 490.8 574.2 489.8L574.2 489.8L574.2 482.1L576.0 482.1L576.0 493L574.5 493L574.4 491.3L574.3 491.3Q573.6 492.2 572.7 492.7Q571.9 493.3 570.7 493.3ZM581.5 493L579.7 493L579.7 482.1L581.2 482.1L581.4 483.7L581.4 483.7Q582.1 482.9 583.0 482.4Q583.8 481.9 584.8 481.9L584.8 481.9Q586.1 481.9 586.8 482.4Q587.5 483.0 587.8 483.9L587.8 483.9Q588.7 483.0 589.5 482.4Q590.4 481.9 591.4 481.9L591.4 481.9Q593.1 481.9 593.9 482.9Q594.7 484.0 594.7 486.1L594.7 486.1L594.7 493L592.9 493L592.9 486.4Q592.9 484.8 592.4 484.1Q591.9 483.5 590.8 483.5L590.8 483.5Q590.2 483.5 589.6 483.9Q588.9 484.3 588.1 485.1L588.1 485.1L588.1 493L586.3 493L586.3 486.4Q586.3 484.8 585.8 484.1Q585.3 483.5 584.3 483.5L584.3 483.5Q583.6 483.5 583.0 483.9Q582.3 484.3 581.5 485.1L581.5 485.1L581.5 493ZM600.1 493L598.2 493L598.2 482.1L600.1 482.1L600.1 493ZM599.1 479.9L599.1 479.9Q598.6 479.9 598.3 479.6Q597.9 479.2 597.9 478.7L597.9 478.7Q597.9 478.1 598.3 477.8Q598.6 477.5 599.1 477.5L599.1 477.5Q599.7 477.5 600.0 477.8Q600.4 478.1 600.4 478.7L600.4 478.7Q600.4 479.2 600.0 479.6Q599.7 479.9 599.1 479.9ZM603.9 497.7L603.9 497.7Q603.5 497.7 603.2 497.6Q602.9 497.6 602.6 497.5L602.6 497.5L603.0 496Q603.1 496.1 603.4 496.1Q603.6 496.2 603.8 496.2L603.8 496.2Q604.7 496.2 605.3 495.5Q605.9 494.8 606.3 493.8L606.3 493.8L606.5 493.0L602.1 482.1L604.0 482.1L606.2 488.2Q606.5 488.9 606.8 489.7Q607.0 490.5 607.3 491.2L607.3 491.2L607.4 491.2Q607.6 490.5 607.9 489.7Q608.1 488.9 608.3 488.2L608.3 488.2L610.3 482.1L612.0 482.1L608.0 493.9Q607.6 495.0 607.0 495.8Q606.5 496.7 605.7 497.2Q605.0 497.7 603.9 497.7ZM616.1 493.3L616.1 493.3Q615.2 493.3 614.5 492.9Q613.8 492.5 613.4 491.9Q613.0 491.2 613.0 490.2L613.0 490.2Q613.0 488.4 614.6 487.4Q616.2 486.5 619.6 486.1L619.6 486.1Q619.6 485.4 619.4 484.8Q619.3 484.2 618.8 483.8Q618.3 483.4 617.4 483.4L617.4 483.4Q616.5 483.4 615.6 483.8Q614.8 484.1 614.1 484.5L614.1 484.5L613.4 483.3Q613.9 483.0 614.6 482.6Q615.3 482.3 616.0 482.1Q616.8 481.9 617.7 481.9L617.7 481.9Q619.0 481.9 619.8 482.4Q620.7 483.0 621.1 484.0Q621.5 485.0 621.5 486.3L621.5 486.3L621.5 493L620.0 493L619.8 491.7L619.7 491.7Q619.0 492.3 618.1 492.8Q617.2 493.3 616.1 493.3ZM616.7 491.8L616.7 491.8Q617.4 491.8 618.1 491.4Q618.9 491.1 619.6 490.4L619.6 490.4L619.6 487.3Q617.8 487.5 616.7 487.9Q615.7 488.3 615.2 488.8Q614.7 489.3 614.7 490.1L614.7 490.1Q614.7 491 615.3 491.4Q615.9 491.8 616.7 491.8ZM627.4 493.3L627.4 493.3Q626.5 493.3 625.8 492.9Q625.1 492.5 624.6 491.9Q624.2 491.2 624.2 490.2L624.2 490.2Q624.2 488.4 625.8 487.4Q627.4 486.5 630.9 486.1L630.9 486.1Q630.9 485.4 630.7 484.8Q630.5 484.2 630.0 483.8Q629.6 483.4 628.7 483.4L628.7 483.4Q627.7 483.4 626.9 483.8Q626.1 484.1 625.4 484.5L625.4 484.5L624.7 483.3Q625.2 483.0 625.9 482.6Q626.5 482.3 627.3 482.1Q628.1 481.9 629.0 481.9L629.0 481.9Q630.3 481.9 631.1 482.4Q631.9 483.0 632.3 484.0Q632.7 485.0 632.7 486.3L632.7 486.3L632.7 493L631.2 493L631.1 491.7L631 491.7Q630.2 492.3 629.3 492.8Q628.4 493.3 627.4 493.3ZM627.9 491.8L627.9 491.8Q628.7 491.8 629.4 491.4Q630.1 491.1 630.9 490.4L630.9 490.4L630.9 487.3Q629.1 487.5 628 487.9Q626.9 488.3 626.5 488.8Q626 489.3 626 490.1L626 490.1Q626 491 626.6 491.4Q627.1 491.8 627.9 491.8ZM640.4 493.3L640.4 493.3Q639.1 493.3 637.9 492.6Q636.7 491.9 636.0 490.6Q635.4 489.4 635.4 487.6L635.4 487.6Q635.4 485.8 636.0 484.5Q636.7 483.2 637.9 482.5Q639.1 481.9 640.4 481.9L640.4 481.9Q641.4 481.9 642.3 482.2Q643.2 482.6 643.9 483.4Q644.6 484.1 645.0 485.2Q645.4 486.2 645.4 487.6L645.4 487.6Q645.4 489.4 644.7 490.6Q644.0 491.9 642.9 492.6Q641.7 493.3 640.4 493.3ZM640.4 491.7L640.4 491.7Q641.3 491.7 642.0 491.2Q642.7 490.7 643.1 489.8Q643.5 488.8 643.5 487.6L643.5 487.6Q643.5 486.3 643.1 485.4Q642.7 484.4 642.0 483.9Q641.3 483.4 640.4 483.4L640.4 483.4Q639.4 483.4 638.7 483.9Q638.0 484.4 637.6 485.4Q637.2 486.3 637.2 487.6L637.2 487.6Q637.2 488.8 637.6 489.8Q638.0 490.7 638.7 491.2Q639.4 491.7 640.4 491.7ZM653.1 493.3L653.1 493.3Q652.3 493.3 651.5 492.9Q650.7 492.5 650.0 491.9L650.0 491.9L649.9 491.9L649.7 493L648.3 493L648.3 477.1L650.1 477.1L650.1 481.4L650.0 483.4Q650.8 482.7 651.7 482.3Q652.5 481.9 653.5 481.9L653.5 481.9Q654.9 481.9 655.8 482.6Q656.8 483.2 657.3 484.5Q657.8 485.7 657.8 487.4L657.8 487.4Q657.8 489.2 657.1 490.6Q656.4 491.9 655.4 492.6Q654.3 493.3 653.1 493.3ZM652.8 491.7L652.8 491.7Q653.7 491.7 654.4 491.2Q655.1 490.7 655.5 489.7Q655.9 488.8 655.9 487.4L655.9 487.4Q655.9 486.2 655.6 485.3Q655.3 484.4 654.7 483.9Q654.1 483.4 653.0 483.4L653.0 483.4Q652.3 483.4 651.6 483.8Q650.9 484.2 650.1 484.9L650.1 484.9L650.1 490.6Q650.8 491.2 651.5 491.5Q652.2 491.7 652.8 491.7ZM662.8 493.3L662.8 493.3Q661.9 493.3 661.1 492.9Q660.4 492.5 660.0 491.9Q659.6 491.2 659.6 490.2L659.6 490.2Q659.6 488.4 661.2 487.4Q662.8 486.5 666.3 486.1L666.3 486.1Q666.3 485.4 666.1 484.8Q665.9 484.2 665.4 483.8Q664.9 483.4 664.0 483.4L664.0 483.4Q663.1 483.4 662.3 483.8Q661.4 484.1 660.8 484.5L660.8 484.5L660.1 483.3Q660.6 483.0 661.2 482.6Q661.9 482.3 662.7 482.1Q663.4 481.9 664.3 481.9L664.3 481.9Q665.6 481.9 666.5 482.4Q667.3 483.0 667.7 484.0Q668.1 485.0 668.1 486.3L668.1 486.3L668.1 493L666.6 493L666.4 491.7L666.4 491.7Q665.6 492.3 664.7 492.8Q663.8 493.3 662.8 493.3ZM663.3 491.8L663.3 491.8Q664.1 491.8 664.8 491.4Q665.5 491.1 666.3 490.4L666.3 490.4L666.3 487.3Q664.4 487.5 663.4 487.9Q662.3 488.3 661.8 488.8Q661.4 489.3 661.4 490.1L661.4 490.1Q661.4 491 661.9 491.4Q662.5 491.8 663.3 491.8ZM672.5 493.3L672.5 493.3Q671.9 493.3 671.5 492.9Q671.1 492.5 671.1 491.9L671.1 491.9Q671.1 491.2 671.5 490.9Q671.9 490.5 672.5 490.5L672.5 490.5Q673 490.5 673.4 490.9Q673.8 491.2 673.8 491.9L673.8 491.9Q673.8 492.5 673.4 492.9Q673 493.3 672.5 493.3ZM681.0 493.3L681.0 493.3Q679.6 493.3 678.4 492.6Q677.3 491.9 676.6 490.6Q676.0 489.4 676.0 487.6L676.0 487.6Q676.0 485.8 676.7 484.5Q677.4 483.2 678.6 482.5Q679.8 481.9 681.2 481.9L681.2 481.9Q682.2 481.9 683.0 482.2Q683.8 482.6 684.3 483.1L684.3 483.1L683.4 484.3Q683.0 483.9 682.4 483.7Q681.9 483.4 681.3 483.4L681.3 483.4Q680.3 483.4 679.5 483.9Q678.7 484.4 678.3 485.4Q677.8 486.3 677.8 487.6L677.8 487.6Q677.8 488.8 678.3 489.8Q678.7 490.7 679.4 491.2Q680.2 491.7 681.2 491.7L681.2 491.7Q682.0 491.7 682.6 491.4Q683.2 491.1 683.8 490.7L683.8 490.7L684.6 491.9Q683.8 492.5 682.9 492.9Q682.0 493.3 681.0 493.3ZM690.6 493.3L690.6 493.3Q689.3 493.3 688.2 492.6Q687.0 491.9 686.3 490.6Q685.6 489.4 685.6 487.6L685.6 487.6Q685.6 485.8 686.3 484.5Q687.0 483.2 688.2 482.5Q689.3 481.9 690.6 481.9L690.6 481.9Q691.6 481.9 692.5 482.2Q693.5 482.6 694.2 483.4Q694.9 484.1 695.3 485.2Q695.7 486.2 695.7 487.6L695.7 487.6Q695.7 489.4 695.0 490.6Q694.3 491.9 693.1 492.6Q692.0 493.3 690.6 493.3ZM690.6 491.7L690.6 491.7Q691.6 491.7 692.3 491.2Q693.0 490.7 693.4 489.8Q693.8 488.8 693.8 487.6L693.8 487.6Q693.8 486.3 693.4 485.4Q693.0 484.4 692.3 483.9Q691.6 483.4 690.6 483.4L690.6 483.4Q689.7 483.4 689.0 483.9Q688.3 484.4 687.9 485.4Q687.5 486.3 687.5 487.6L687.5 487.6Q687.5 488.8 687.9 489.8Q688.3 490.7 689.0 491.2Q689.7 491.7 690.6 491.7ZM700.4 493L698.5 493L698.5 482.1L700.0 482.1L700.2 483.7L700.3 483.7Q701.0 482.9 701.8 482.4Q702.7 481.9 703.6 481.9L703.6 481.9Q704.9 481.9 705.6 482.4Q706.3 483.0 706.6 483.9L706.6 483.9Q707.5 483.0 708.4 482.4Q709.2 481.9 710.2 481.9L710.2 481.9Q711.9 481.9 712.7 482.9Q713.5 484.0 713.5 486.1L713.5 486.1L713.5 493L711.7 493L711.7 486.4Q711.7 484.8 711.2 484.1Q710.7 483.5 709.7 483.5L709.7 483.5Q709.1 483.5 708.4 483.9Q707.7 484.3 706.9 485.1L706.9 485.1L706.9 493L705.1 493L705.1 486.4Q705.1 484.8 704.6 484.1Q704.1 483.5 703.1 483.5L703.1 483.5Q702.5 483.5 701.8 483.9Q701.1 484.3 700.4 485.1L700.4 485.1L700.4 493Z "/></g></svg>